<?xml version="1.0" standalone="no"?>
<!DOCTYPE svg PUBLIC "-//W3C//DTD SVG 20010904//EN"
 "http://www.w3.org/TR/2001/REC-SVG-20010904/DTD/svg10.dtd">
<svg version="1.0" xmlns="http://www.w3.org/2000/svg"
 width="760.000000pt" height="760.000000pt" viewBox="0 0 760.000000 760.000000"
 preserveAspectRatio="xMidYMid meet">
<metadata>
Created by potrace 1.14, written by Peter Selinger 2001-2017
</metadata>
<g transform="translate(0.000000,760.000000) scale(0.100000,-0.100000)"
fill="#000000" stroke="none">
<path d="M3135 7295 c-220 -33 -318 -53 -433 -86 -267 -77 -499 -173 -724
-299 -118 -66 -353 -222 -438 -290 -139 -111 -379 -344 -514 -500 -214 -247
-442 -657 -566 -1015 -263 -765 -236 -1686 71 -2402 149 -348 344 -676 539
-908 77 -91 357 -371 364 -364 2 2 -32 50 -77 105 -336 414 -529 821 -651
1372 -62 279 -70 364 -71 777 0 305 3 393 18 500 85 606 335 1202 693 1650
112 139 182 213 309 325 416 366 759 561 1230 703 276 83 519 121 850 133 416
14 828 -46 1288 -190 301 -93 485 -178 717 -330 121 -79 287 -218 331 -276 19
-25 46 -58 61 -75 181 -203 387 -540 502 -821 133 -326 226 -757 245 -1134 23
-445 -34 -926 -154 -1301 -92 -284 -224 -559 -386 -804 -178 -267 -287 -396
-494 -583 -326 -295 -613 -476 -990 -625 -198 -78 -479 -152 -670 -177 -38 -5
-104 -14 -146 -19 -131 -17 -465 -24 -599 -12 -595 53 -1007 165 -1495 408
-115 58 -338 212 -444 307 l-34 31 20 -30 c43 -62 279 -271 444 -393 82 -61
320 -212 333 -212 2 0 51 -25 108 -56 300 -161 756 -313 1051 -349 318 -39
560 -41 907 -10 562 52 1178 311 1670 704 127 101 383 359 501 507 328 406
564 910 669 1425 64 321 74 851 21 1205 -89 592 -404 1264 -810 1724 -103 116
-524 532 -621 614 -200 168 -440 320 -725 460 -213 105 -372 165 -590 221
-356 92 -538 115 -895 114 -223 -1 -289 -4 -415 -24z"/>
<path d="M2845 6610 c3 -5 16 -10 28 -10 44 -1 194 -51 272 -91 237 -123 536
-385 784 -689 149 -182 195 -262 158 -276 -7 -2 -80 20 -162 50 -500 181 -991
267 -1432 252 -110 -4 -183 -3 -183 3 0 5 9 51 19 103 37 179 101 348 173 457
38 58 1 24 -46 -42 -67 -94 -114 -195 -176 -377 l-57 -165 -123 -31 c-136 -35
-274 -87 -364 -137 -69 -38 -92 -70 -27 -37 130 66 319 126 439 139 52 6 62 5
62 -9 0 -8 -11 -94 -25 -190 -31 -220 -43 -557 -26 -744 11 -113 10 -131 -4
-150 -54 -74 -69 -102 -91 -167 -14 -41 -28 -109 -31 -152 -6 -77 -6 -78 -47
-110 -413 -321 -714 -662 -877 -992 -60 -123 -122 -296 -134 -375 -10 -67 7
-40 44 69 91 264 255 494 557 778 198 187 486 413 527 413 7 0 28 -16 47 -35
19 -20 44 -35 57 -35 12 0 31 -10 43 -22 22 -24 22 -25 74 -238 91 -373 286
-891 452 -1200 100 -186 189 -369 182 -375 -8 -9 -192 88 -317 167 -206 131
-433 297 -567 415 -39 35 -75 63 -79 63 -11 0 60 -82 181 -209 156 -164 346
-321 585 -484 126 -86 157 -112 142 -120 -69 -39 -597 -70 -814 -48 -300 31
-491 81 -616 162 -73 48 -92 47 -35 -2 167 -143 567 -262 963 -285 94 -6 469
9 545 22 27 4 40 -2 80 -37 66 -57 157 -97 207 -91 38 4 40 3 185 -148 270
-281 459 -436 643 -526 99 -49 201 -88 259 -99 48 -10 30 4 -60 45 -249 115
-459 295 -707 606 -86 108 -108 142 -99 151 3 4 48 -8 98 -25 301 -102 591
-170 823 -192 199 -20 511 -15 661 10 70 12 138 26 151 31 41 15 63 11 63 -11
0 -12 -16 -63 -35 -114 -19 -52 -35 -97 -35 -102 0 -21 22 20 65 121 53 126
63 138 127 171 66 34 71 47 13 38 -43 -6 -47 -5 -41 12 15 50 56 280 65 366
16 140 13 491 -4 643 -8 72 -15 134 -15 139 0 5 103 111 228 235 238 235 330
346 440 529 l56 94 18 -24 c85 -107 150 -262 219 -518 30 -114 36 -86 9 51
-32 169 -85 340 -139 452 -27 56 -52 111 -56 123 -3 13 8 53 31 105 29 66 73
191 74 207 0 1 -4 2 -9 2 -5 0 -15 -17 -21 -37 -12 -37 -83 -175 -102 -200 -7
-9 -28 17 -74 93 -186 306 -543 671 -939 957 -77 56 -159 119 -182 141 -49 44
-56 78 -20 97 55 30 477 19 672 -17 128 -24 289 -77 345 -114 106 -70 129 -68
41 4 -212 173 -570 276 -963 276 l-126 0 -39 43 c-187 207 -304 265 -516 254
-115 -6 -98 -16 -235 143 -101 117 -317 333 -432 431 -154 132 -392 280 -535
334 -120 46 -306 81 -290 55z m-175 -855 c328 -31 695 -116 1035 -239 230 -83
245 -89 275 -116 l28 -25 -10 -82 -11 -82 -56 -16 c-377 -105 -837 -290 -1195
-483 -106 -56 -163 -82 -171 -76 -94 68 -141 92 -217 108 -31 7 -32 11 -50
196 -14 151 -17 684 -5 773 l8 57 112 0 c62 0 177 -7 257 -15z m1490 -773 c44
-37 111 -84 148 -105 60 -32 79 -37 165 -43 53 -4 101 -12 106 -18 5 -6 50
-92 99 -191 85 -168 124 -255 224 -495 128 -309 291 -868 323 -1111 6 -45 5
-47 -23 -57 -17 -6 -75 -40 -131 -76 -196 -127 -495 -287 -773 -412 -213 -96
-690 -267 -808 -289 -19 -4 -43 -9 -52 -11 -12 -4 -36 12 -70 44 -72 67 -104
82 -180 82 l-63 0 -24 43 c-29 51 -180 353 -211 422 -66 146 -141 331 -225
555 -55 148 -192 610 -200 675 -6 47 -4 53 27 90 100 118 138 202 138 310 l0
75 53 31 c28 17 156 81 282 144 328 161 819 347 1050 398 52 12 68 5 145 -61z
m713 -48 c80 -41 433 -300 577 -423 253 -216 620 -628 620 -696 0 -30 -126
-201 -227 -306 -137 -143 -443 -404 -466 -396 -5 1 -24 68 -42 147 -117 521
-253 908 -509 1445 -42 88 -76 169 -76 180 1 20 52 62 78 64 7 1 27 -6 45 -15z
m411 -2221 c42 -233 49 -627 16 -853 -15 -104 -24 -139 -39 -151 -32 -26 -182
-42 -406 -42 -360 0 -699 62 -1143 208 -124 41 -222 86 -222 103 0 4 134 51
298 105 163 54 367 126 452 161 157 63 435 198 545 264 183 109 239 144 344
214 64 42 121 77 127 78 7 0 19 -37 28 -87z"/>
</g>
</svg>
